HIERARCHY
ROOT Hips
{
	OFFSET 0.00000 0.00000 0.00000
	CHANNELS 6 Xposition Yposition Zposition Zrotation Yrotation Xrotation 
	JOINT LHipJoint
	{
		OFFSET 0 0 0
		CHANNELS 3 Zrotation Yrotation Xrotation
		JOINT LeftHip
		{
			OFFSET 1.44361 -1.63093 0.70831
			CHANNELS 3 Zrotation Yrotation Xrotation
			JOINT LeftKnee
			{
				OFFSET 2.20103 -6.04728 0.00000
				CHANNELS 3 Zrotation Yrotation Xrotation
				JOINT LeftAnkle
				{
					OFFSET 2.54154 -6.98283 0.00000
					CHANNELS 3 Zrotation Yrotation Xrotation
					JOINT LeftToe
					{
						OFFSET 0.05971 -0.16406 1.77582
						CHANNELS 3 Zrotation Yrotation Xrotation
						End Site
						{
							OFFSET 0.00000 -0.00000 0.90832
						}
					}
				}
			}
		}
	}
	JOINT RHipJoint
	{
		OFFSET 0 0 0
		CHANNELS 3 Zrotation Yrotation Xrotation
		JOINT RightHip
		{
			OFFSET -1.65838 -1.63093 0.70830
			CHANNELS 3 Zrotation Yrotation Xrotation
			JOINT RightKnee
			{
				OFFSET -2.26926 -6.23475 0.00000
				CHANNELS 3 Zrotation Yrotation Xrotation
				JOINT RightAnkle
				{
					OFFSET -2.34808 -6.45129 0.00000
					CHANNELS 3 Zrotation Yrotation Xrotation
					JOINT RightToe
					{
						OFFSET -0.18633 -0.51195 1.68539
						CHANNELS 3 Zrotation Yrotation Xrotation
						End Site
						{
							OFFSET -0.00000 -0.00000 0.88927
						}
					}
				}
			}
		}
	}
	JOINT lowerback
	{
		OFFSET 0 0 0
		CHANNELS 3 Zrotation Yrotation Xrotation
		JOINT Chest
		{
			OFFSET -0.10393 2.01691 0.06920
			CHANNELS 3 Zrotation Yrotation Xrotation
			JOINT Chest2
			{
				OFFSET 0.04092 2.01302 -0.05283
				CHANNELS 3 Zrotation Yrotation Xrotation
				JOINT lowerneck
				{
					OFFSET 0 0 0
					CHANNELS 3 Zrotation Yrotation Xrotation
					JOINT Neck
					{
						OFFSET -0.02870 1.58978 -0.03113
						CHANNELS 3 Zrotation Yrotation Xrotation
						JOINT Head
						{
							OFFSET 0.11532 1.54326 -0.29195
							CHANNELS 3 Zrotation Yrotation Xrotation
							End Site
							{
								OFFSET 0.04056 1.59999 -0.09535
							}
						}
					}
				}
				JOINT LeftCollar
				{
					OFFSET 0 0 0
					CHANNELS 3 Zrotation Yrotation Xrotation
					JOINT LeftShoulder
					{
						OFFSET 3.30641 1.15764 0.01104
CHANNELS 3 Zrotation Xrotation Yrotation
						JOINT LeftElbow
						{
OFFSET 0 -4.632080 0.000000
CHANNELS 3 Zrotation Xrotation Yrotation
							JOINT LeftWrist
							{
OFFSET 0 -3.419240 -0.000000
CHANNELS 3 Zrotation Xrotation Yrotation
								JOINT lhand
								{
									OFFSET 0 0 0
CHANNELS 3 Zrotation Xrotation Yrotation
									JOINT LFingers
									{
OFFSET 0 -0.625370 -0.000000
CHANNELS 3 Zrotation Xrotation Yrotation
										End Site
										{
OFFSET 0 -0.504190 -0.000000
										}
									}
								}
								JOINT LThumb
								{
OFFSET 0 0.000000 0.000000
CHANNELS 3 Zrotation Xrotation Yrotation
									End Site
									{
OFFSET 0 -0.511890 0.511890
									}
								}
							}
						}
					}
				}
				JOINT RightCollar
				{
					OFFSET 0 0 0
					CHANNELS 3 Zrotation Yrotation Xrotation
					JOINT RightShoulder
					{
						OFFSET -3.78081 1.02180 -0.16609
CHANNELS 3 Zrotation Xrotation Yrotation
						JOINT RightElbow
						{
OFFSET 0 -4.406400 -0.000000
CHANNELS 3 Zrotation Xrotation Yrotation
							JOINT RightWrist
							{
OFFSET 0 -3.446750 0.000000
CHANNELS 3 Zrotation Xrotation Yrotation
								JOINT rhand
								{
									OFFSET 0 0 0
CHANNELS 3 Zrotation Xrotation Yrotation
									JOINT RFingers
									{
OFFSET 0 -0.513670 -0.000000
CHANNELS 3 Zrotation Xrotation Yrotation
										End Site
										{
OFFSET 0 -0.414140 -0.000000
										}
									}
								}
								JOINT RThumb
								{
OFFSET 0 0.000000 0.000000
CHANNELS 3 Zrotation Xrotation Yrotation
									End Site
									{
OFFSET 0 -0.420460 0.420460
									}
								}
							}
						}
					}
				}
			}
		}
	}
}
MOTION
Frames: 7
Frame Time: 0.008333333333333333
7.052200 16.480300 34.837700 -179.177000 2.115300 -174.993000 0.000000 0.000000 0.000000 -18.642200 -13.303300 -9.694500 2.256100 9.380300 26.992300 1.733300 -1.874800 -24.377900 9.686400 -17.229700 -58.434800 0.000000 0.000000 0.000000 24.293900 2.544500 -4.473100 -0.434800 -4.231200 11.727900 -0.702000 3.983500 -14.981400 -1.240600 7.062800 -19.901500 -4.127200 0.813100 -6.636300 2.560400 1.341400 1.023700 5.141800 0.533100 4.639800 -5.119300 -1.022600 -7.043500 4.792600 -3.759200 25.116100 2.029600 -2.479000 9.185900 0.000000 -0.000000 0.000000 0.311800 -5.836700 -21.753900 8.834100 -14.895600 1.157100 33.531400 21.043900 18.337100 0.000000 0.000000 0.000000 -7.125000 0.000000 0.000000 3.489500 8.329700 2.952800 0.000000 -0.000000 0.000000 0.700300 5.730800 -16.064500 -12.411000 -20.418100 -2.243600 -23.454700 36.595400 38.284700 0.000000 0.000000 0.000000 7.125000 0.000000 -0.000000 16.894700 70.022100 -10.204500
7.043921 16.483251 34.850733 -179.426189 2.311454 -175.001197 0.000000 0.000000 0.000000 -18.984425 -13.229609 -9.615727 2.221427 9.312675 26.778522 1.733792 -1.765124 -24.409376 9.675416 -17.223224 -58.397750 0.000000 0.000000 0.000000 24.000284 2.780819 -4.548594 -0.447341 -4.291038 11.896840 -0.711836 3.962926 -15.090502 -1.246994 7.080096 -19.952977 -4.387455 0.680145 -6.637366 2.548432 1.183444 1.057472 5.262624 0.444327 4.690703 -5.147252 -0.888005 -7.200636 4.846208 -3.622638 25.383896 2.064437 -2.425474 9.302543 0.000000 0.000000 0.000000 0.160074 -5.999001 -21.707505 8.830657 -14.890108 1.156198 34.312983 21.270711 17.817820 0.000000 0.000000 0.000000 -7.125000 0.000000 0.000000 4.068208 8.761354 3.408963 0.000000 0.000000 0.000000 0.703989 5.827443 -16.014334 -12.457067 -20.486545 -2.259748 -23.885944 36.898525 38.426180 0.000000 0.000000 0.000000 7.125000 0.000000 0.000000 16.519278 70.294404 -10.072610
7.035578 16.485882 34.864662 -179.612716 2.446546 -174.990212 0.000000 0.000000 0.000000 -19.231634 -13.167171 -9.544115 2.183301 9.237633 26.541726 1.729168 -1.602570 -24.418282 9.711492 -17.244307 -58.519526 0.000000 0.000000 0.000000 23.777257 2.983954 -4.639690 -0.457581 -4.339367 12.033490 -0.720074 3.943054 -15.182021 -1.221993 7.011136 -19.748631 -4.554421 0.580502 -6.638815 2.513958 1.063468 1.065795 5.309533 0.378699 4.713089 -5.070662 -0.748871 -7.288846 4.907873 -3.510501 25.652267 2.082266 -2.376487 9.406590 0.000000 0.000000 0.000000 0.054384 -6.146978 -21.625112 8.774784 -14.800727 1.141933 35.054924 21.763512 17.317787 0.000000 0.000000 0.000000 -7.125000 0.000000 0.000000 4.621084 9.183225 3.835777 0.000000 0.000000 0.000000 0.831785 5.952986 -16.297232 -12.500193 -20.550514 -2.274873 -24.026069 37.140523 38.346236 0.000000 0.000000 0.000000 7.125000 0.000000 0.000000 16.230877 70.265168 -9.883814
7.028365 16.488745 34.878796 -179.727860 2.573233 -174.977032 0.000000 0.000000 0.000000 -19.372536 -13.066542 -9.480858 2.141997 9.155586 26.283381 1.723791 -1.470556 -24.414350 9.740224 -17.261132 -58.616444 0.000000 0.000000 0.000000 23.640200 3.195039 -4.717096 -0.465932 -4.378253 12.143406 -0.727127 3.929304 -15.259674 -1.170143 6.865334 -19.317614 -4.644535 0.537632 -6.613010 2.476213 1.012508 1.042014 5.314710 0.352379 4.679183 -4.850736 -1.775118 -7.312076 4.669677 -3.068824 26.056143 2.128033 -1.471965 9.541472 0.000000 0.000000 0.000000 -0.045302 -6.262683 -21.475777 8.697790 -14.677452 1.122385 35.742761 22.266952 17.169065 0.000000 0.000000 0.000000 -7.125000 0.000000 0.000000 5.084681 9.205171 4.223877 0.000000 0.000000 0.000000 1.033738 6.059225 -17.025992 -12.455995 -20.484903 -2.259409 -24.558169 37.766032 38.061167 0.000000 0.000000 0.000000 7.125000 0.000000 0.000000 15.162079 70.169128 -9.192235
7.022471 16.492138 34.891780 -179.785200 2.706649 -174.966376 0.000000 0.000000 0.000000 -19.429653 -12.921769 -9.425393 2.098266 9.067703 26.007437 1.716362 -1.364790 -24.389163 9.761185 -17.273360 -58.687068 0.000000 0.000000 0.000000 23.572764 3.418408 -4.766690 -0.472055 -4.406471 12.223082 -0.733296 3.933978 -15.325955 -1.108367 6.688259 -18.795384 -4.682874 0.542849 -6.556625 2.445763 1.020531 0.983150 5.302533 0.359862 4.584432 -4.545145 -3.035839 -7.401296 4.325734 -2.550781 26.622028 2.158918 -0.385918 9.745294 0.000000 0.000000 0.000000 -0.156436 -6.293091 -21.362967 8.662045 -14.620213 1.113328 36.374688 22.488406 17.407470 0.000000 0.000000 0.000000 -7.125000 0.000000 0.000000 5.449248 8.780976 4.576026 0.000000 0.000000 0.000000 1.263272 6.143426 -18.071616 -12.325432 -20.290791 -2.213956 -25.296713 38.723316 37.822045 0.000000 0.000000 0.000000 7.125000 0.000000 0.000000 13.877228 70.183143 -8.404561
7.017261 16.496152 34.902305 -179.806636 2.834929 -174.955326 0.000000 0.000000 0.000000 -19.440210 -12.755165 -9.373816 2.052936 8.975318 25.718317 1.702455 -1.240402 -24.322074 9.798935 -17.295247 -58.814287 0.000000 0.000000 0.000000 23.545640 3.634773 -4.786568 -0.475270 -4.421262 12.264816 -0.738289 3.959581 -15.377913 -1.058206 6.540478 -18.360963 -4.689933 0.568817 -6.488082 2.427093 1.053291 0.898173 5.286625 0.382426 4.452612 -4.237962 -2.968236 -7.708511 4.230030 -2.389775 27.300161 2.108014 -0.249876 10.036121 0.000000 0.000000 0.000000 -0.283617 -6.203580 -21.412848 8.719330 -14.712020 1.127802 36.948766 22.217420 17.879860 0.000000 0.000000 0.000000 -7.125000 0.000000 0.000000 5.734776 8.087127 4.896622 0.000000 0.000000 0.000000 1.481588 6.217577 -19.215950 -12.157913 -20.040984 -2.156180 -25.542020 39.671950 37.903936 0.000000 0.000000 0.000000 7.125000 0.000000 0.000000 13.647556 70.340836 -8.311639
7.011114 16.500742 34.910666 -179.786963 2.928374 -174.941391 0.000000 0.000000 0.000000 -19.412832 -12.594258 -9.310699 2.005804 8.878102 25.414700 1.677946 -1.113922 -24.177889 9.840002 -17.318936 -58.952324 0.000000 0.000000 0.000000 23.561788 3.818468 -4.782142 -0.475025 -4.420115 12.261619 -0.739026 3.942777 -15.387176 -1.033287 6.465393 -18.140956 -4.639439 0.592260 -6.459639 2.425372 1.079850 0.842187 5.256869 0.400951 4.375314 -3.865655 -2.861183 -8.166313 4.082975 -2.174031 28.008873 2.034897 -0.088232 10.368345 0.000000 0.000000 0.000000 -0.443540 -6.132676 -21.501457 8.801136 -14.842844 1.148622 37.414520 21.628384 18.425452 0.000000 0.000000 0.000000 -7.125000 0.000000 0.000000 5.933471 7.325052 5.157287 0.000000 0.000000 0.000000 1.662905 6.224872 -20.508780 -11.981596 -19.777041 -2.096096 -24.532724 40.315660 38.091483 0.000000 0.000000 0.000000 7.125000 0.000000 0.000000 15.231708 70.190503 -9.239866
